<svg width="1769" height="398" viewBox="0 0 1769 398" fill="none" xmlns="http://www.w3.org/2000/svg">
<path d="M2 396C2 360.465 6.64666 333.534 15.7251 300.639C20.2038 284.411 27.8181 273.099 34.7292 258.558C52.0008 222.22 94.599 228.016 122.095 228.016C138.541 228.016 155.625 227.403 171.717 232.427C200.163 241.31 230.319 253.048 259.61 255.504C295.68 258.528 323.348 244.733 353.443 220.55C388.065 192.727 415.482 157.285 447.671 125.358C499.284 74.1658 565.337 82.226 623.326 111.275C684.713 142.025 733.642 198.094 793.571 232.088C822.323 248.397 862.747 252.651 893.606 248.038C914.171 244.963 939.674 239.315 957.217 224.961C974.362 210.933 986.29 195.698 999.844 176.093C1011.92 158.621 1026.33 137.09 1035.21 116.705C1043.99 96.5503 1060.88 70.9417 1074.41 55.789C1090.33 37.9594 1106.14 25.8529 1126.67 21.8527C1160.7 15.2241 1188.58 28.2327 1212.19 60.031C1235.58 91.5432 1261.31 120.459 1291.9 140.121C1307.46 150.125 1329.17 157.164 1346.54 157.767C1359.66 158.224 1368.68 150.881 1380.85 146.229C1406.28 136.507 1428.23 110.852 1451.06 93.6279C1468.72 80.3013 1486.69 70.0443 1506.09 61.7278C1518.8 56.2816 1531.15 44.2992 1543.17 36.4453C1567.06 20.8399 1585.09 7.41631 1611.67 4.88458C1628.4 3.29069 1644.45 2 1661.29 2C1696.6 2 1731.9 3.3582 1767 8.10853" stroke="#FFF2F2" stroke-width="3" stroke-linecap="round" stroke-dasharray="6 6"/>
</svg>
